<!DOCTYPE svg PUBLIC "-//W3C//DTD SVG 20010904//EN" "http://www.w3.org/TR/2001/REC-SVG-20010904/DTD/svg10.dtd">
<svg version="1.0" xmlns="http://www.w3.org/2000/svg" width="560px" height="626px" viewBox="0 0 5600 6260" preserveAspectRatio="xMidYMid meet">
<g id="layer101" fill="#000000" stroke="none">
 <path d="M0 3130 l0 -3130 2800 0 2800 0 0 3130 0 3130 -2800 0 -2800 0 0 -3130z"/>
 </g>
<g id="layer102" fill="#070707" stroke="none">
 <path d="M0 3130 l0 -3130 2800 0 2800 0 0 3130 0 3130 -2800 0 -2800 0 0 -3130z m4986 2775 c54 -8 138 -15 187 -15 l87 0 -1 -130 c-1 -72 -5 -133 -10 -136 -5 -3 -9 -21 -9 -40 0 -19 -4 -34 -10 -34 -5 0 -10 -5 -10 -10 0 -13 -99 -110 -111 -110 -5 0 -8 -3 -7 -7 3 -15 -14 -43 -23 -37 -5 3 -9 1 -9 -5 0 -6 -18 -28 -39 -49 -22 -22 -51 -57 -66 -78 -15 -21 -41 -55 -58 -74 -18 -19 -31 -38 -29 -42 1 -5 -5 -8 -15 -8 -9 0 -14 -3 -10 -6 3 -3 -10 -22 -29 -42 -19 -21 -49 -59 -67 -87 -17 -27 -35 -51 -39 -53 -5 -2 -8 -8 -8 -14 0 -14 -26 -38 -42 -38 -8 0 -20 -6 -26 -12 -10 -10 -77 -14 -252 -15 -143 -1 -248 -6 -259 -13 -11 -5 -72 -10 -137 -10 l-117 0 -47 -47 c-26 -27 -59 -57 -74 -67 -14 -10 -24 -21 -22 -23 2 -2 -6 -14 -18 -27 -11 -12 -36 -41 -54 -64 -19 -23 -41 -42 -50 -42 -8 0 -13 -3 -9 -6 3 -3 -3 -21 -14 -40 -10 -19 -19 -45 -19 -59 0 -13 -4 -27 -10 -30 -5 -3 -10 -24 -10 -46 0 -21 -4 -39 -10 -39 -5 0 -10 -11 -10 -24 0 -14 -4 -28 -10 -31 -5 -3 -10 -15 -10 -26 0 -10 -4 -19 -10 -19 -5 0 -10 -8 -10 -18 0 -10 -4 -22 -9 -28 -13 -13 -31 -118 -31 -183 0 -31 -7 -85 -16 -121 -8 -36 -15 -75 -15 -87 1 -13 -4 -23 -9 -23 -6 0 -10 -11 -10 -25 0 -14 -4 -25 -10 -25 -5 0 -10 -12 -10 -26 0 -14 -4 -23 -10 -19 -5 3 -10 -1 -10 -9 0 -9 -4 -16 -10 -16 -5 0 -10 -7 -10 -15 0 -8 -4 -23 -9 -33 -35 -69 -40 -99 -50 -282 -8 -145 -20 -197 -53 -234 -10 -11 -18 -26 -18 -33 0 -7 -4 -13 -10 -13 -5 0 -10 -9 -10 -21 0 -11 -4 -17 -10 -14 -8 5 -17 -76 -11 -108 1 -5 -3 -6 -8 -3 -6 4 -12 -36 -15 -101 -8 -166 -23 -333 -35 -383 -16 -70 -14 -74 36 -95 41 -16 70 -19 200 -18 150 2 179 -2 258 -37 51 -22 117 -75 107 -85 -4 -5 -1 -5 6 -1 15 9 46 -20 37 -34 -4 -6 1 -7 11 -3 12 4 15 3 10 -5 -4 -8 -2 -10 7 -6 9 3 19 -6 27 -25 7 -17 16 -28 20 -26 5 3 11 -4 15 -15 3 -11 12 -20 18 -20 7 0 6 -4 -3 -10 -12 -8 -10 -10 9 -10 19 0 23 -4 19 -25 -3 -15 -1 -25 6 -25 13 0 76 -66 76 -80 0 -6 9 -19 21 -31 13 -13 19 -28 16 -41 -3 -11 -3 -17 0 -14 4 3 12 -11 20 -31 20 -58 15 -158 -13 -258 -14 -49 -25 -101 -26 -115 0 -14 -4 -33 -10 -44 -6 -11 -10 -59 -9 -109 1 -65 -2 -96 -13 -112 -8 -13 -13 -35 -10 -49 2 -14 0 -26 -6 -26 -5 0 -10 -5 -10 -10 0 -6 -28 -39 -62 -73 -72 -73 -88 -92 -88 -107 0 -5 -4 -10 -10 -10 -5 0 -10 -7 -10 -15 0 -8 -4 -15 -10 -15 -5 0 -10 -9 -10 -20 0 -11 -4 -20 -10 -20 -5 0 -10 -7 -10 -15 0 -8 -7 -15 -15 -15 -8 0 -15 -4 -15 -10 0 -13 -70 -90 -82 -90 -10 0 -38 -25 -38 -35 0 -14 -71 -75 -116 -100 -54 -30 -203 -55 -336 -55 -57 0 -88 -5 -125 -22 -26 -12 -53 -22 -59 -23 -6 0 -22 -6 -35 -13 -32 -16 -265 -33 -544 -38 -243 -5 -413 11 -462 44 -13 8 -23 10 -23 6 0 -5 -4 -4 -8 1 -4 6 -26 23 -49 38 -24 15 -43 31 -43 36 0 5 -15 12 -34 15 -19 4 -37 14 -40 23 -4 9 -9 13 -12 10 -4 -3 -11 -1 -18 4 -6 5 -22 19 -36 30 -30 24 -120 103 -161 141 -16 14 -29 31 -29 37 0 6 -4 11 -9 11 -6 0 -26 32 -47 70 -20 39 -40 70 -45 70 -5 0 -11 0 -14 0 -12 -1 -35 29 -35 45 0 9 -4 14 -9 11 -14 -9 -23 85 -12 123 6 19 8 38 5 43 -13 20 18 228 48 323 18 55 35 104 40 110 4 5 8 21 8 35 0 14 6 35 14 45 8 11 12 24 9 30 -2 7 3 17 11 24 8 7 13 18 10 25 -2 6 3 20 12 31 8 11 12 14 8 6 -5 -10 -3 -12 5 -7 7 5 10 14 7 22 -3 7 -1 16 4 19 6 4 10 15 10 25 0 10 4 20 9 22 5 2 11 10 13 18 2 8 11 21 21 28 9 7 17 22 17 33 0 10 5 19 10 19 6 0 10 5 10 10 0 16 47 60 56 52 4 -4 4 -2 0 5 -8 15 34 83 51 83 7 0 10 7 7 15 -5 13 6 20 28 16 4 0 5 6 2 13 -3 8 4 24 15 35 12 12 20 23 19 25 -6 8 37 54 45 49 6 -3 7 -1 3 5 -8 14 39 47 89 61 22 6 87 11 145 12 58 0 125 4 148 7 40 6 45 11 58 47 10 27 16 90 17 195 1 85 6 160 10 167 8 12 20 133 18 173 -1 14 -4 144 -7 290 -3 146 -9 269 -15 274 -5 6 -9 46 -9 90 0 43 -3 76 -6 73 -4 -4 -18 6 -31 21 -46 52 -57 84 -59 162 -1 90 -13 170 -25 170 -5 0 -9 12 -9 26 0 14 -4 23 -10 19 -5 -3 -10 1 -10 9 0 9 -4 16 -10 16 -5 0 -10 10 -10 22 0 12 -3 18 -7 14 -8 -8 -32 137 -33 199 0 28 -6 45 -19 54 -11 8 -17 21 -13 29 3 10 0 13 -9 10 -8 -3 -19 0 -25 6 -25 24 -64 56 -69 56 -11 0 -43 34 -39 42 3 4 -1 8 -8 8 -8 0 -29 15 -47 34 -32 33 -107 66 -150 66 -12 0 -21 5 -21 10 0 6 -11 10 -25 10 -14 0 -25 5 -25 12 0 6 -3 8 -7 5 -3 -4 -15 0 -25 10 -10 9 -18 12 -18 8 0 -4 -9 2 -20 15 -11 13 -20 20 -20 16 0 -4 -7 -1 -15 8 -8 8 -15 20 -15 26 0 6 -4 8 -10 5 -5 -3 -10 -2 -10 2 0 5 -13 23 -29 41 -17 17 -37 42 -45 54 -12 17 -18 20 -28 10 -18 -18 -448 -17 -449 1 0 8 -2 9 -5 0 -4 -8 -12 -8 -32 3 -15 8 -34 14 -42 14 -13 0 -13 1 0 10 11 7 7 10 -17 10 -18 0 -33 4 -33 9 0 5 -9 13 -20 16 -11 3 -20 12 -20 19 0 7 -11 18 -25 24 -14 6 -25 16 -25 22 0 5 -6 10 -13 10 -16 0 -67 54 -67 71 0 5 -4 7 -10 4 -5 -3 -10 2 -10 11 0 10 -3 14 -7 11 -11 -12 -30 35 -62 159 -6 23 -11 86 -11 140 -1 55 -5 131 -10 169 -6 39 -13 95 -17 125 -3 30 -12 64 -19 75 -18 27 -5 73 27 96 30 22 -82 21 1234 20 1135 0 1117 0 1210 39 11 5 464 9 1006 9 826 1 1002 -1 1085 -14z"/>
 <path d="M2983 5833 c15 -2 37 -2 50 0 12 2 0 4 -28 4 -27 0 -38 -2 -22 -4z"/>
 <path d="M3578 5833 c23 -2 61 -2 85 0 23 2 4 4 -43 4 -47 0 -66 -2 -42 -4z"/>
 <path d="M3763 5833 c15 -2 37 -2 50 0 12 2 0 4 -28 4 -27 0 -38 -2 -22 -4z"/>
 <path d="M4368 5833 c23 -2 59 -2 80 0 20 2 1 4 -43 4 -44 0 -61 -2 -37 -4z"/>
 <path d="M4598 5833 c7 -3 16 -2 19 1 4 3 -2 6 -13 5 -11 0 -14 -3 -6 -6z"/>
 <path d="M3025 5819 c-66 -3 -163 -16 -215 -28 -94 -21 -101 -22 -1150 -20 -888 1 -1058 3 -1074 15 -34 24 -56 18 -56 -15 0 -16 6 -31 13 -34 9 -3 9 -10 -2 -30 -11 -21 -12 -32 -3 -49 6 -13 10 -30 10 -38 -1 -68 25 -366 32 -368 6 -2 10 -16 10 -32 0 -39 24 -90 59 -124 17 -16 28 -33 24 -39 -3 -6 -1 -7 5 -3 13 8 64 -33 56 -45 -3 -5 2 -6 10 -3 9 3 16 1 16 -5 0 -17 41 -50 55 -45 7 3 16 1 20 -5 3 -6 -1 -11 -9 -11 -9 0 -16 -4 -16 -9 0 -12 249 -13 305 -2 23 4 53 19 67 34 24 24 56 38 45 20 -3 -5 17 -9 44 -10 29 -1 63 -10 82 -22 36 -22 87 -75 87 -91 0 -5 9 -14 20 -20 11 -6 18 -15 15 -21 -4 -5 -1 -9 5 -9 16 0 62 -49 55 -59 -3 -5 0 -13 6 -17 8 -4 9 -3 5 4 -11 19 9 14 38 -9 14 -11 30 -18 35 -14 5 3 12 1 16 -5 3 -5 17 -10 30 -10 13 0 27 -5 30 -10 4 -6 10 -8 14 -6 8 6 64 -13 101 -33 34 -19 80 -70 80 -88 0 -8 4 -12 9 -8 6 3 27 -9 48 -27 21 -18 44 -37 51 -43 42 -33 92 -85 81 -85 -8 0 -4 -7 7 -15 18 -12 22 -28 27 -109 3 -55 12 -109 21 -126 8 -17 12 -38 9 -46 -3 -7 0 -14 7 -14 6 0 8 5 5 10 -3 6 -4 10 -1 10 3 0 15 -18 27 -41 11 -23 16 -38 10 -34 -6 3 -11 1 -11 -4 0 -6 3 -11 8 -11 19 0 32 -61 32 -152 0 -59 4 -98 10 -98 6 0 9 -3 8 -8 -2 -4 7 -18 20 -32 17 -18 19 -26 10 -33 -10 -6 -9 -7 3 -4 31 10 49 -28 49 -102 0 -38 7 -103 15 -144 29 -137 3 -958 -33 -1047 -3 -8 -6 -22 -7 -30 -3 -38 -18 -90 -26 -90 -5 0 -8 -3 -8 -7 1 -5 1 -27 0 -50 l-1 -43 -39 0 c-39 0 -40 1 -48 41 -7 36 -12 42 -36 45 -15 1 -25 -2 -22 -7 4 -5 -47 -9 -127 -9 l-133 0 -65 -91 c-36 -50 -69 -98 -75 -107 -13 -20 -37 -51 -53 -67 -6 -8 -12 -18 -12 -24 0 -6 -6 -11 -14 -11 -8 0 -18 -5 -22 -12 -4 -7 -3 -8 4 -4 6 4 -4 -16 -23 -45 -19 -28 -35 -57 -35 -65 0 -8 -7 -14 -16 -14 -8 0 -13 -4 -9 -9 3 -6 -4 -26 -15 -46 -11 -19 -20 -42 -20 -50 0 -8 -4 -15 -10 -15 -5 0 -10 -14 -10 -31 0 -17 -4 -28 -10 -24 -6 4 -10 -10 -10 -34 0 -22 -5 -43 -10 -46 -6 -3 -10 -16 -10 -29 0 -12 -3 -26 -7 -29 -19 -19 -45 -124 -54 -217 -22 -239 -22 -246 4 -274 14 -14 29 -26 35 -26 10 0 28 -38 24 -52 -1 -4 7 -12 18 -18 11 -6 20 -20 20 -30 0 -11 5 -20 11 -20 5 0 7 -5 4 -10 -3 -6 1 -13 9 -16 9 -3 16 -13 16 -21 0 -8 4 -12 8 -9 5 3 32 -17 61 -45 28 -27 56 -49 61 -49 5 0 15 -10 21 -22 13 -25 39 -53 48 -53 3 0 5 -3 4 -7 -2 -5 0 -7 5 -7 17 3 33 -2 29 -8 -3 -5 -1 -18 4 -31 7 -19 14 -22 45 -19 21 3 37 0 40 -7 3 -7 13 -12 24 -13 11 -1 27 -9 36 -17 8 -9 27 -16 40 -16 14 0 33 -4 43 -10 23 -12 374 -13 649 -3 176 7 205 6 213 -7 7 -13 8 -13 9 2 0 11 6 15 19 11 13 -3 23 2 30 16 7 12 20 21 31 21 10 0 20 5 22 10 3 9 78 18 318 37 41 3 80 10 87 15 7 5 22 7 35 3 14 -4 18 -3 11 2 -9 6 -7 12 7 21 17 10 20 10 20 -5 0 -15 2 -16 9 -3 6 8 8 17 6 21 -3 3 10 22 28 40 17 19 31 37 30 41 -2 4 6 5 17 3 11 -2 19 -1 19 3 -1 4 -1 14 0 22 1 13 2 13 11 0 9 -13 10 -13 10 1 0 20 44 62 55 52 4 -5 5 -3 1 4 -4 7 7 31 24 54 16 23 30 48 30 56 0 8 5 11 10 8 6 -3 10 1 10 10 0 20 25 46 35 37 5 -4 5 -2 2 4 -7 13 28 54 78 93 40 30 55 85 55 203 0 54 4 100 10 103 5 3 10 17 10 30 0 13 5 27 10 30 6 3 10 11 10 16 0 6 -6 7 -12 3 -10 -6 -10 -5 -1 8 7 8 14 28 15 44 1 16 6 32 11 35 5 4 11 24 13 45 3 22 7 59 10 83 6 41 -6 103 -27 143 -5 10 -9 28 -9 40 0 12 -3 18 -7 15 -3 -4 -28 27 -56 68 -27 41 -53 75 -58 75 -5 0 -9 7 -9 16 0 8 -4 12 -10 9 -6 -3 -10 2 -10 11 0 10 -2 15 -5 13 -2 -3 -32 21 -65 53 -34 32 -65 58 -70 58 -5 0 -15 6 -22 13 -42 38 -62 42 -248 47 -118 3 -193 9 -206 17 -12 7 -24 9 -28 6 -3 -3 -6 -1 -6 5 0 7 -16 12 -39 12 -22 0 -43 5 -46 10 -4 6 -11 8 -16 5 -5 -4 -9 1 -9 9 0 9 -4 16 -10 16 -15 0 -12 30 6 47 8 9 13 22 9 31 -3 8 0 21 7 29 7 9 11 42 10 88 -2 40 2 92 8 116 6 24 12 89 14 144 2 92 19 219 33 255 3 8 8 24 10 35 2 11 11 26 21 33 9 7 17 16 17 20 0 4 3 6 6 5 4 -1 4 7 1 19 -3 14 -1 19 6 14 11 -6 15 5 11 30 0 4 4 10 11 14 6 4 12 13 13 21 2 8 6 19 9 25 4 6 8 71 9 145 1 74 5 139 10 144 4 6 10 24 12 40 10 55 28 105 37 105 6 0 9 3 8 8 -1 4 3 17 10 30 7 12 10 22 6 22 -4 0 -1 8 7 18 30 36 59 116 61 167 0 22 4 45 9 50 4 6 9 55 10 110 2 55 7 102 11 105 4 3 9 16 11 28 2 12 6 25 10 28 4 4 7 16 7 26 0 10 4 18 9 18 6 0 18 26 28 58 9 31 20 59 23 62 3 3 5 13 6 23 3 72 5 78 16 71 7 -4 8 -3 4 4 -4 7 -4 18 1 25 4 6 8 14 9 17 6 33 69 108 86 103 4 -2 7 1 5 5 -3 13 64 92 74 86 5 -3 6 1 4 9 -6 14 59 80 69 70 3 -4 6 1 6 11 0 9 5 14 10 11 6 -3 10 -1 10 5 0 16 27 41 68 63 23 12 63 20 116 23 45 2 95 6 111 8 17 3 38 5 48 5 10 1 15 6 12 11 -3 6 1 10 9 10 10 0 13 -6 9 -16 -5 -15 -2 -16 23 -8 16 5 115 9 219 10 105 1 203 5 220 9 27 8 77 48 74 60 -3 16 25 64 34 58 6 -3 7 -1 3 5 -6 11 41 62 57 62 4 0 5 5 2 10 -3 6 -2 10 3 10 5 0 15 11 22 25 7 14 15 23 18 20 6 -5 32 21 32 32 0 4 9 14 20 21 11 7 20 22 20 35 0 15 3 18 9 9 6 -10 11 -5 21 17 7 17 17 28 23 24 6 -3 7 -1 3 5 -6 11 41 62 57 62 4 0 6 4 3 8 -3 5 4 15 15 22 10 8 19 20 19 28 0 7 5 10 10 7 6 -3 10 -2 10 3 0 16 62 72 73 65 6 -3 7 -1 3 5 -4 7 -2 12 3 12 6 0 10 3 9 8 -1 4 3 23 10 42 6 19 13 71 14 115 l3 80 -62 0 c-33 0 -59 3 -56 8 2 4 -215 7 -484 7 -268 1 -697 2 -953 3 -256 1 -519 -1 -585 -4z m-1234 -5226 c13 -16 12 -17 -3 -4 -17 13 -22 21 -14 21 2 0 10 -8 17 -17z"/>
 <path d="M2230 3630 c0 -7 3 -10 7 -7 3 4 3 10 0 14 -4 3 -7 0 -7 -7z"/>
 <path d="M3843 1953 c4 -3 10 -3 14 0 3 4 0 7 -7 7 -7 0 -10 -3 -7 -7z"/>
 </g>
<g id="layer103" fill="#ffffff" stroke="none">
 <path d="M0 3130 l0 -3130 2800 0 2800 0 0 3130 0 3130 -2800 0 -2800 0 0 -3130z m4986 2775 c54 -8 138 -15 187 -15 l87 0 0 -129 c0 -76 -4 -132 -10 -136 -5 -3 -10 -22 -10 -41 0 -19 -4 -34 -10 -34 -5 0 -10 -4 -10 -10 0 -5 -26 -36 -57 -69 -103 -104 -195 -207 -207 -228 -6 -12 -26 -37 -43 -57 -18 -19 -33 -38 -33 -41 0 -3 -19 -24 -41 -47 -23 -24 -58 -68 -78 -98 -20 -30 -39 -56 -43 -58 -5 -2 -8 -8 -8 -14 0 -14 -26 -38 -42 -38 -8 0 -20 -6 -26 -12 -10 -10 -77 -14 -252 -15 -143 -1 -248 -6 -259 -13 -11 -5 -72 -10 -137 -10 l-117 0 -47 -47 c-26 -27 -57 -55 -69 -63 -11 -8 -21 -18 -21 -22 0 -8 -28 -42 -94 -112 -48 -51 -76 -99 -76 -131 0 -13 -4 -27 -10 -30 -5 -3 -10 -24 -10 -46 0 -21 -4 -39 -10 -39 -5 0 -10 -11 -10 -24 0 -14 -4 -28 -10 -31 -5 -3 -10 -15 -10 -26 0 -10 -4 -19 -10 -19 -5 0 -10 -8 -10 -18 0 -10 -4 -22 -9 -28 -13 -13 -31 -117 -31 -178 0 -61 -31 -236 -42 -236 -4 0 -8 -11 -8 -25 0 -14 -4 -25 -10 -25 -5 0 -10 -12 -10 -26 0 -14 -4 -23 -10 -19 -5 3 -10 -1 -10 -9 0 -9 -4 -16 -10 -16 -5 0 -10 -7 -10 -15 0 -8 -4 -23 -9 -33 -35 -69 -40 -99 -50 -282 -8 -145 -20 -197 -53 -234 -10 -11 -18 -26 -18 -33 0 -7 -4 -13 -10 -13 -5 0 -10 -9 -10 -21 0 -11 -4 -17 -10 -14 -8 5 -17 -76 -11 -108 1 -5 -3 -6 -8 -3 -6 4 -12 -36 -15 -101 -8 -166 -23 -333 -35 -383 -16 -70 -14 -74 37 -95 41 -17 66 -19 195 -17 142 3 164 0 251 -31 36 -13 164 -107 199 -145 7 -7 26 -28 42 -46 57 -63 75 -86 75 -96 0 -6 5 -10 10 -10 6 0 10 -7 10 -15 0 -8 5 -15 10 -15 6 0 10 -7 10 -15 0 -8 3 -15 8 -15 4 0 17 -19 30 -43 57 -109 65 -198 31 -337 -36 -142 -41 -171 -49 -280 -11 -136 -20 -190 -31 -190 -5 0 -9 -5 -9 -10 0 -6 -28 -39 -62 -73 -72 -73 -88 -92 -88 -107 0 -5 -4 -10 -10 -10 -5 0 -10 -7 -10 -15 0 -8 -4 -15 -10 -15 -5 0 -10 -9 -10 -20 0 -11 -4 -20 -10 -20 -5 0 -10 -4 -10 -10 0 -13 -100 -120 -112 -120 -11 0 -38 -25 -38 -35 0 -14 -71 -75 -116 -100 -55 -31 -202 -55 -339 -55 -64 -1 -90 -5 -130 -25 -27 -14 -57 -25 -66 -25 -8 0 -19 -4 -25 -9 -13 -14 -275 -32 -539 -37 -183 -4 -251 -2 -335 12 -58 9 -109 20 -114 25 -6 5 -18 9 -28 9 -10 0 -18 3 -18 8 0 4 -17 16 -37 27 -63 32 -167 98 -189 120 -12 11 -47 43 -79 70 -100 86 -134 126 -171 196 -20 38 -43 69 -51 69 -17 0 -43 24 -43 39 0 6 -4 11 -9 11 -16 0 -20 74 -10 175 5 55 12 137 16 183 3 45 10 85 14 88 5 3 9 16 9 30 0 13 4 24 8 24 5 0 15 23 22 51 8 27 18 52 22 55 4 3 8 15 8 27 0 24 22 93 33 103 4 4 7 15 7 23 0 9 11 33 25 53 14 20 25 44 25 52 0 9 5 16 10 16 6 0 10 9 10 20 0 11 5 20 10 20 6 0 10 7 10 15 0 8 5 15 10 15 6 0 10 7 10 15 0 8 5 15 10 15 6 0 10 5 10 11 0 7 8 19 18 28 10 9 31 37 47 63 17 27 33 48 38 48 4 0 7 6 7 14 0 8 4 16 8 18 5 2 23 26 42 53 50 75 102 121 154 134 25 6 91 11 148 12 57 0 123 4 146 7 40 6 45 11 58 47 9 26 16 94 18 195 1 85 5 162 9 170 7 18 19 134 17 170 0 14 -3 144 -6 290 -3 146 -9 269 -15 274 -5 6 -9 41 -9 78 0 63 -3 71 -31 101 -51 53 -63 85 -65 167 -1 90 -13 170 -25 170 -5 0 -9 9 -9 20 0 11 -4 20 -10 20 -5 0 -10 7 -10 15 0 8 -4 15 -10 15 -5 0 -10 7 -10 15 0 8 -4 15 -8 15 -8 0 -32 162 -32 213 0 20 -11 39 -39 65 -53 51 -90 82 -97 82 -3 0 -33 26 -65 58 -57 54 -127 92 -172 92 -19 0 -122 46 -145 64 -42 34 -131 132 -154 168 -5 9 -10 8 -21 0 -23 -19 -448 -16 -485 4 -15 7 -33 14 -39 14 -7 0 -13 5 -13 10 0 6 -7 10 -16 10 -8 0 -22 6 -29 13 -8 6 -33 28 -56 47 -69 56 -129 117 -129 131 0 7 -3 9 -7 6 -11 -12 -30 35 -62 159 -6 23 -11 86 -11 140 -1 55 -5 131 -10 169 -6 39 -13 95 -17 125 -3 30 -12 64 -19 75 -18 27 -5 73 27 96 30 22 -78 21 1234 20 1136 0 1116 -1 1210 39 11 5 464 9 1006 9 826 1 1002 -1 1085 -14z"/>
 <path d="M2907 5814 c-3 -4 -46 -15 -94 -25 -83 -17 -154 -18 -1148 -18 -866 0 -1063 3 -1078 14 -26 19 -57 8 -57 -20 0 -13 6 -25 13 -28 9 -3 9 -10 -2 -30 -11 -21 -12 -32 -3 -49 6 -13 16 -108 22 -213 6 -104 15 -191 20 -193 6 -2 10 -16 10 -32 0 -63 31 -102 175 -225 28 -24 49 -36 118 -64 32 -12 171 -14 232 -2 23 4 53 19 68 35 17 16 34 25 45 22 9 -3 35 -8 57 -12 56 -9 97 -37 152 -102 89 -105 106 -119 195 -163 10 -5 24 -9 33 -9 21 0 105 -28 138 -46 15 -8 53 -41 85 -72 32 -31 73 -68 91 -82 48 -37 104 -93 119 -118 6 -12 12 -46 12 -75 0 -86 16 -148 54 -212 20 -32 36 -69 36 -81 0 -13 5 -26 10 -29 6 -3 10 -52 10 -111 0 -63 4 -104 10 -104 6 0 10 -5 10 -10 0 -6 10 -21 23 -34 54 -56 57 -64 57 -135 0 -38 7 -103 15 -144 27 -130 6 -874 -30 -1042 -26 -121 -27 -125 -36 -125 -5 0 -8 -3 -8 -8 1 -4 1 -26 0 -49 l-1 -43 -39 0 c-39 0 -40 1 -48 41 -7 36 -12 42 -36 45 -15 1 -25 -2 -22 -7 4 -5 -45 -9 -122 -9 l-128 0 -28 -32 c-34 -41 -127 -167 -127 -173 0 -5 -26 -37 -48 -60 -6 -8 -12 -16 -12 -20 0 -3 -11 -18 -25 -33 -13 -14 -35 -47 -47 -72 -13 -25 -25 -47 -28 -50 -12 -12 -50 -93 -50 -106 0 -8 -4 -14 -10 -14 -5 0 -10 -14 -10 -31 0 -17 -4 -28 -10 -24 -6 4 -10 -10 -10 -34 0 -22 -5 -43 -10 -46 -5 -3 -10 -16 -10 -29 0 -12 -3 -26 -7 -29 -23 -24 -45 -129 -58 -277 -8 -91 -15 -170 -15 -177 0 -14 43 -63 56 -63 12 -1 64 -87 64 -106 0 -8 5 -14 10 -14 6 0 10 -5 10 -11 0 -6 19 -28 42 -48 23 -20 55 -48 70 -64 15 -15 30 -27 34 -27 3 0 22 -16 41 -35 19 -19 41 -35 49 -35 7 0 17 -6 21 -14 8 -13 116 -86 128 -86 4 0 13 -7 21 -15 9 -8 27 -15 40 -15 14 0 33 -4 42 -9 23 -12 398 -14 669 -3 179 7 226 12 247 25 14 9 32 17 40 17 8 0 16 5 18 10 3 9 69 17 313 36 39 3 88 14 111 24 44 20 131 97 126 113 -1 4 1 6 6 3 12 -7 124 114 147 160 11 22 23 41 28 42 4 2 7 8 7 13 0 12 25 41 91 108 31 31 61 71 67 90 7 19 12 78 12 132 0 54 4 101 10 104 6 3 10 24 10 45 0 21 5 42 10 45 5 3 10 22 10 41 0 19 4 34 9 34 5 0 12 19 15 42 3 24 8 63 12 87 6 41 -5 102 -27 143 -5 10 -9 24 -9 32 0 8 -3 16 -8 18 -4 2 -27 32 -51 68 -43 64 -212 240 -230 240 -5 0 -16 6 -23 13 -42 38 -62 42 -233 45 -156 2 -235 12 -259 34 -6 4 -25 8 -42 8 -18 0 -36 5 -39 10 -4 6 -11 8 -16 5 -5 -4 -9 1 -9 9 0 9 -4 16 -10 16 -5 0 -10 9 -10 20 0 11 5 20 10 20 6 0 10 13 10 28 0 15 4 32 9 37 5 6 12 53 15 105 21 347 39 491 71 552 10 18 23 43 29 55 6 13 14 23 19 23 4 0 7 9 7 20 0 11 5 20 10 20 6 0 10 9 10 19 0 11 4 23 10 26 6 4 10 63 10 145 0 82 4 141 10 145 6 3 10 16 10 28 0 25 23 95 46 138 8 16 13 31 12 33 -2 2 4 12 12 22 25 31 40 63 40 83 0 11 5 23 10 26 6 3 10 28 10 55 0 27 5 52 10 55 6 3 10 52 10 111 0 63 4 104 10 104 6 0 10 11 10 24 0 14 5 28 10 31 6 3 10 15 10 26 0 10 4 19 9 19 10 0 48 114 57 172 16 99 56 155 259 362 91 93 119 107 219 112 93 4 149 13 156 25 3 4 105 4 228 -2 154 -7 227 -7 241 0 11 6 27 11 36 11 22 0 35 15 64 71 12 26 45 71 72 100 108 116 119 130 119 139 0 6 5 10 10 10 6 0 10 5 10 10 0 6 10 22 23 35 104 110 127 135 127 140 0 3 24 29 54 58 62 61 74 93 78 202 l3 80 -62 0 c-33 0 -59 3 -56 8 5 8 -2131 10 -2140 1z"/>
 <path d="M3900 1450 c0 -7 3 -10 7 -7 3 4 3 10 0 14 -4 3 -7 0 -7 -7z"/>
 </g>

</svg>